<svg width="27" height="161" viewBox="0 0 27 161" fill="none" xmlns="http://www.w3.org/2000/svg">
<path d="M21.8546 3.74107C20.676 2.55054 19.2721 1.6066 17.7249 0.964315C16.1777 0.322026 14.518 -0.00575947 12.8428 7.65806e-05C5.8236 7.65806e-05 0.102845 5.72083 0.102845 12.74C0.102845 14.9897 0.694205 17.1752 1.79979 19.1036L0 25.7114L6.74921 23.9373C8.61328 24.9529 10.7087 25.4928 12.8428 25.4928C19.862 25.4928 25.5827 19.772 25.5827 12.7529C25.5827 9.34612 24.2586 6.14507 21.8546 3.74107ZM12.8428 23.3331C10.9401 23.3331 9.07608 22.8188 7.44341 21.8547L7.05774 21.6233L3.04679 22.6774L4.1138 18.7693L3.85669 18.3708C2.79963 16.6828 2.23835 14.7317 2.23688 12.74C2.23688 6.90355 6.99347 2.14697 12.8299 2.14697C15.6582 2.14697 18.3193 3.25255 20.3119 5.25803C21.2986 6.24016 22.0805 7.40835 22.6123 8.69489C23.1441 9.98144 23.4153 11.3607 23.4101 12.7529C23.4358 18.5893 18.6792 23.3331 12.8428 23.3331ZM18.6535 15.414C18.3321 15.2597 16.7638 14.4884 16.4809 14.3727C16.1852 14.2698 15.9796 14.2184 15.761 14.5269C15.5425 14.8483 14.9382 15.5683 14.7583 15.7739C14.5783 15.9925 14.3855 16.0182 14.0641 15.8511C13.7427 15.6968 12.7142 15.3497 11.5058 14.2698C10.5545 13.4214 9.92455 12.3801 9.73172 12.0587C9.55174 11.7373 9.70601 11.5702 9.87313 11.403C10.0145 11.2616 10.1945 11.0302 10.3488 10.8502C10.5031 10.6703 10.5673 10.5288 10.6702 10.3232C10.773 10.1046 10.7216 9.92463 10.6445 9.77036C10.5673 9.61609 9.92455 8.04771 9.66744 7.40492C9.41033 6.78785 9.14036 6.86499 8.94752 6.85213H8.33045C8.11191 6.85213 7.77766 6.92927 7.48198 7.25066C7.19916 7.57205 6.3764 8.34339 6.3764 9.91177C6.3764 11.4802 7.52055 12.9971 7.67482 13.2028C7.82908 13.4214 9.92455 16.6353 13.1127 18.0108C13.8712 18.3451 14.4626 18.5379 14.9254 18.6793C15.6839 18.9236 16.3781 18.885 16.9309 18.8079C17.5479 18.7179 18.8207 18.0365 19.0778 17.2909C19.3477 16.5453 19.3477 15.9154 19.2577 15.7739C19.1678 15.6325 18.9749 15.5683 18.6535 15.414Z" fill="white"/>
<path d="M19.7205 71.7711C19.4154 71.7711 19.1172 71.8616 18.8635 72.0311C18.6098 72.2006 18.4121 72.4415 18.2953 72.7234C18.1785 73.0053 18.148 73.3155 18.2075 73.6147C18.267 73.914 18.414 74.1888 18.6297 74.4046C18.8455 74.6203 19.1203 74.7673 19.4196 74.8268C19.7188 74.8863 20.029 74.8558 20.3109 74.739C20.5928 74.6222 20.8337 74.4245 21.0032 74.1708C21.1727 73.9171 21.2632 73.6189 21.2632 73.3138C21.2632 72.9046 21.1007 72.5122 20.8114 72.2229C20.5221 71.9336 20.1297 71.7711 19.7205 71.7711ZM25.6341 74.8821C25.6091 73.8155 25.4094 72.7602 25.0428 71.7582C24.7159 70.9009 24.2071 70.1246 23.5515 69.4828C22.9149 68.8238 22.1368 68.3183 21.2761 68.0044C20.2768 67.6266 19.2203 67.4223 18.1522 67.4002C16.7895 67.323 16.3524 67.323 12.8556 67.323C9.3589 67.323 8.92181 67.323 7.55911 67.4002C6.49101 67.4223 5.43452 67.6266 4.43519 68.0044C3.57602 68.3215 2.79859 68.8266 2.15975 69.4828C1.5008 70.1194 0.995253 70.8975 0.681349 71.7582C0.3036 72.7575 0.0992584 73.814 0.0771338 74.8821C-7.18365e-08 76.2448 0 76.6819 0 80.1787C0 83.6754 -7.18365e-08 84.1125 0.0771338 85.4752C0.0992584 86.5433 0.3036 87.5998 0.681349 88.5991C0.995253 89.4599 1.5008 90.238 2.15975 90.8746C2.79859 91.5308 3.57602 92.0359 4.43519 92.353C5.43452 92.7307 6.49101 92.935 7.55911 92.9572C8.92181 93.0343 9.3589 93.0343 12.8556 93.0343C16.3524 93.0343 16.7895 93.0343 18.1522 92.9572C19.2203 92.935 20.2768 92.7307 21.2761 92.353C22.1368 92.039 22.9149 91.5335 23.5515 90.8746C24.21 90.2351 24.7193 89.4581 25.0428 88.5991C25.4094 87.5971 25.6091 86.5418 25.6341 85.4752C25.6341 84.1125 25.7113 83.6754 25.7113 80.1787C25.7113 76.6819 25.7113 76.2448 25.6341 74.8821ZM23.3201 85.3209C23.3108 86.137 23.163 86.9455 22.883 87.7121C22.6778 88.2715 22.3481 88.7771 21.9189 89.1905C21.5019 89.6154 20.9974 89.9444 20.4405 90.1546C19.6739 90.4346 18.8654 90.5824 18.0493 90.5917C16.7638 90.656 16.2881 90.6689 12.9071 90.6689C9.52603 90.6689 9.05037 90.6689 7.7648 90.5917C6.91748 90.6076 6.07377 90.4771 5.27081 90.2061C4.73831 89.985 4.25696 89.6569 3.85669 89.2419C3.43 88.8289 3.10443 88.323 2.90537 87.7635C2.59151 86.9859 2.41743 86.159 2.39115 85.3209C2.39115 84.0354 2.31401 83.5597 2.31401 80.1787C2.31401 76.7976 2.31401 76.322 2.39115 75.0364C2.39691 74.2022 2.54921 73.3754 2.8411 72.5938C3.06742 72.0512 3.4148 71.5675 3.85669 71.1797C4.24726 70.7377 4.72996 70.3867 5.27081 70.1513C6.05443 69.8685 6.88033 69.7207 7.71338 69.7142C8.99895 69.7142 9.4746 69.637 12.8556 69.637C16.2367 69.637 16.7123 69.637 17.9979 69.7142C18.8139 69.7235 19.6225 69.8713 20.389 70.1513C20.9732 70.3681 21.4976 70.7206 21.9189 71.1797C22.3401 71.5746 22.6693 72.0574 22.883 72.5938C23.1688 73.3767 23.3166 74.2031 23.3201 75.0364C23.3844 76.322 23.3973 76.7976 23.3973 80.1787C23.3973 83.5597 23.3844 84.0354 23.3201 85.3209ZM12.8556 73.5837C11.5518 73.5863 10.278 73.9752 9.19519 74.7014C8.11235 75.4276 7.26906 76.4585 6.77188 77.6638C6.27469 78.8691 6.14593 80.1947 6.40184 81.4731C6.65776 82.7516 7.28688 83.9255 8.20971 84.8465C9.13254 85.7676 10.3077 86.3944 11.5866 86.6478C12.8655 86.9012 14.1909 86.7699 15.3952 86.2704C16.5995 85.7708 17.6288 84.9255 18.3529 83.8413C19.077 82.757 19.4634 81.4825 19.4634 80.1787C19.4651 79.311 19.2953 78.4516 18.9637 77.6499C18.632 76.8482 18.1452 76.1199 17.5311 75.507C16.917 74.8941 16.1878 74.4086 15.3854 74.0786C14.583 73.7485 13.7233 73.5803 12.8556 73.5837ZM12.8556 84.4596C12.0089 84.4596 11.1813 84.2085 10.4773 83.7381C9.77329 83.2677 9.22459 82.5991 8.90058 81.8169C8.57656 81.0347 8.49179 80.1739 8.65697 79.3435C8.82215 78.5131 9.22987 77.7503 9.82856 77.1516C10.4273 76.5529 11.1901 76.1452 12.0205 75.98C12.8509 75.8148 13.7116 75.8996 14.4939 76.2236C15.2761 76.5476 15.9447 77.0963 16.4151 77.8003C16.8855 78.5043 17.1366 79.332 17.1366 80.1787C17.1366 80.7408 17.0258 81.2975 16.8107 81.8169C16.5956 82.3363 16.2802 82.8082 15.8827 83.2057C15.4852 83.6033 15.0133 83.9186 14.4939 84.1337C13.9745 84.3489 13.4178 84.4596 12.8556 84.4596Z" fill="white"/>
<path fill-rule="evenodd" clip-rule="evenodd" d="M3.5353 134.646C2.59768 134.646 1.69846 135.018 1.03547 135.681C0.372468 136.344 0 137.244 0 138.181C0 139.119 0.372468 140.018 1.03547 140.681C1.69846 141.344 2.59768 141.717 3.5353 141.717C4.47292 141.717 5.37214 141.344 6.03514 140.681C6.69813 140.018 7.0706 139.119 7.0706 138.181C7.0706 137.244 6.69813 136.344 6.03514 135.681C5.37214 135.018 4.47292 134.646 3.5353 134.646ZM1.92835 138.181C1.92835 137.755 2.09765 137.346 2.39901 137.045C2.70037 136.744 3.10911 136.574 3.5353 136.574C3.96149 136.574 4.37023 136.744 4.67159 137.045C4.97295 137.346 5.14226 137.755 5.14226 138.181C5.14226 138.607 4.97295 139.016 4.67159 139.318C4.37023 139.619 3.96149 139.788 3.5353 139.788C3.10911 139.788 2.70037 139.619 2.39901 139.318C2.09765 139.016 1.92835 138.607 1.92835 138.181ZM0 143.323C0 143.068 0.101582 142.823 0.2824 142.642C0.463217 142.461 0.708458 142.359 0.964173 142.359H6.10643C6.36214 142.359 6.60738 142.461 6.7882 142.642C6.96902 142.823 7.0706 143.068 7.0706 143.323V160.036C7.0706 160.292 6.96902 160.537 6.7882 160.718C6.60738 160.898 6.36214 161 6.10643 161H0.964173C0.708458 161 0.463217 160.898 0.2824 160.718C0.101582 160.537 0 160.292 0 160.036V143.323ZM1.92835 144.288V159.072H5.14226V144.288H1.92835ZM8.99895 143.323C8.99895 143.068 9.10053 142.823 9.28135 142.642C9.46216 142.461 9.70741 142.359 9.96312 142.359H15.1054C15.3611 142.359 15.6063 142.461 15.7871 142.642C15.968 142.823 16.0695 143.068 16.0695 143.323V143.881L16.6288 143.641C17.593 143.229 18.6159 142.971 19.6601 142.876C23.2276 142.552 26.3541 145.355 26.3541 148.954V160.036C26.3541 160.292 26.2525 160.537 26.0717 160.718C25.8908 160.898 25.6456 161 25.3899 161H20.2476C19.9919 161 19.7467 160.898 19.5659 160.718C19.385 160.537 19.2835 160.292 19.2835 160.036V151.037C19.2835 150.611 19.1142 150.202 18.8128 149.901C18.5114 149.599 18.1027 149.43 17.6765 149.43C17.2503 149.43 16.8416 149.599 16.5402 149.901C16.2389 150.202 16.0695 150.611 16.0695 151.037V160.036C16.0695 160.292 15.968 160.537 15.7871 160.718C15.6063 160.898 15.3611 161 15.1054 161H9.96312C9.70741 161 9.46216 160.898 9.28135 160.718C9.10053 160.537 8.99895 160.292 8.99895 160.036V143.323ZM10.9273 144.288V159.072H14.1412V151.037C14.1412 150.099 14.5137 149.2 15.1767 148.537C15.8397 147.874 16.7389 147.502 17.6765 147.502C18.6141 147.502 19.5133 147.874 20.1763 148.537C20.8393 149.2 21.2118 150.099 21.2118 151.037V159.072H24.4257V148.954C24.4257 146.507 22.2904 144.573 19.8363 144.797C18.9931 144.873 18.1672 145.082 17.3885 145.414L15.4859 146.23C15.3392 146.293 15.179 146.319 15.02 146.305C14.8609 146.29 14.7078 146.237 14.5745 146.149C14.4411 146.061 14.3318 145.941 14.2561 145.801C14.1805 145.66 14.141 145.503 14.1412 145.343V144.288H10.9273Z" fill="white"/>
</svg>
